# xmcd CD database file
#
# Track frame offsets:
#	150
#	22290
#	43255
#	52873
#	69039
#	89414
#	124436
#	150524
#	171719
#	195998
#	217131
#	240634
#	252654
#	268182
#	290563
#	318601
#
# Disc length: 4667 seconds
#
# Revision: 0
# Processed by: cddbd v1.5.1PL0 Copyright (c) Steve Scherf et al.
# Submitted via: CDex 1.51
#
DISCID=fc123910
DTITLE=Various Artist - chill jazz
DYEAR=2003
DGENRE=Jazz
TTITLE0=Bossa Nostra - Jackie 
TTITLE1=Gazzara - Our Man In Rio
TTITLE2=Black and Brown - Manic Samba
TTITLE3=Ohm Guru - Please Please Please
TTITLE4=Black Almighty Orchestra - Light My Fire
TTITLE5=Italien Secret Service - Via Beato Angelico
TTITLE6=LTJ Xperience - And I Love Him
TTITLE7=Bossa Nostra - Khamalion
TTITLE8=Bruna Loppez - Apocalypse
TTITLE9=Italien Secret Service - Drummer Boy
TTITLE10=Gazzara - La Isla Del Amor
TTITLE11=Montefiori Cocktail - Aqua De Beber
TTITLE12=Nico - Round Midnight
TTITLE13=Clan Greco - Avenida
TTITLE14=The Easy Acces Orchestra - Swinging London
TTITLE15=Montefiori Cocktail - Gipsy Woman
EXTD=YEAR: 2003
EXTT0=
EXTT1=
EXTT2=
EXTT3=
EXTT4=
EXTT5=
EXTT6=
EXTT7=
EXTT8=
EXTT9=
EXTT10=
EXTT11=
EXTT12=
EXTT13=
EXTT14=
EXTT15=
PLAYORDER=
